<svg width="120" height="41" viewBox="0 0 120 41" fill="none" xmlns="http://www.w3.org/2000/svg">
<path d="M25.3 11.2049C28.15 11.2049 30.5 13.8049 30.5 16.9549C30.5 20.3549 27.55 22.4549 24.75 24.9549C21.95 27.4549 20.5 28.8049 20 29.1049C19.45 28.7549 17.65 27.1049 15.25 24.9549C12.4 22.4549 9.5 20.3549 9.5 16.9549C9.5 13.8049 11.85 11.2049 14.7 11.2049C16.8 11.2049 17.95 12.2049 18.75 13.3549C19.7 14.6549 19.85 15.3049 20 15.3049C20.15 15.3049 20.3 14.6549 21.25 13.3549C22.05 12.2049 23.2 11.2049 25.3 11.2049ZM25.3 9.70493C23.05 9.70493 21.35 10.6049 20 12.5049C18.65 10.6549 16.95 9.75493 14.7 9.75493C11 9.70493 8 12.9549 8 16.9549C8 20.6049 10.7 22.9549 13.3 25.2049C13.6 25.4549 13.95 25.7549 14.25 26.0549L15.4 27.0549C17.6 29.0049 18.7 30.0049 19.2 30.3049C19.45 30.4549 19.75 30.5549 20 30.5549C20.3 30.5549 20.55 30.4549 20.8 30.3049C21.3 30.0049 22.2 29.2049 24.7 26.9049L25.7 26.0049C26.05 25.7049 26.35 25.4049 26.7 25.1549C29.35 22.9549 32 20.6549 32 16.9549C32 12.9549 29 9.70493 25.3 9.70493Z" fill="#262626"/>
<g clip-path="url(#clip0_296_1831)">
<path fill-rule="evenodd" clip-rule="evenodd" d="M71.75 31.2049L70.35 25.7049C71.25 24.0549 71.75 22.1549 71.75 20.1549C71.75 13.6549 66.5 8.40494 60 8.40494C53.5 8.40494 48.25 13.6549 48.25 20.1549C48.25 26.6549 53.5 31.9049 60 31.9049C62 31.9049 63.9 31.4049 65.55 30.5049L71.05 31.9049C71.45 32.0049 71.85 31.6049 71.75 31.2049ZM70.25 20.1549C70.25 22.1549 69.75 23.6549 68.95 25.1549C68.85 25.3549 68.8 25.6049 68.85 25.8549L69.9 30.0549L65.75 29.0049C65.5 28.9549 65.25 28.9549 65.05 29.1049C64.15 29.6049 62.45 30.4049 60.05 30.4049C54.35 30.4049 49.75 25.8049 49.75 20.1549C49.75 14.5049 54.35 9.90494 60 9.90494C65.65 9.90494 70.25 14.5049 70.25 20.1549Z" fill="#262626"/>
</g>
<g clip-path="url(#clip1_296_1831)">
<path d="M111.9 10.0549C111.75 9.80494 111.5 9.65494 111.25 9.65494H88.75C88.45 9.70494 88.15 9.90494 88.05 10.1549C87.95 10.4049 88 10.7549 88.2 11.0049L96.15 18.8049L98.9 30.1049C98.95 30.4049 99.2 30.6049 99.5 30.6549H99.6C99.85 30.6549 100.1 30.5049 100.25 30.3049L111.85 10.8049C112.05 10.6049 112.05 10.3049 111.9 10.0549V10.0549ZM90.6 11.2049H108.35L97 17.5049L90.6 11.2049ZM99.95 28.0049L97.75 18.8049L109.2 12.4549L99.95 28.0049Z" fill="#262626"/>
</g>
<defs>
<clipPath id="clip0_296_1831">
<rect width="24" height="24" fill="white" transform="translate(48 8.15494)"/>
</clipPath>
<clipPath id="clip1_296_1831">
<rect width="24" height="24" fill="white" transform="translate(88 8.15494)"/>
</clipPath>
</defs>
</svg>
