<svg width="40" height="41" viewBox="0 0 40 41" fill="none" xmlns="http://www.w3.org/2000/svg">
<path d="M20 21.6549C20.8284 21.6549 21.5 20.9834 21.5 20.1549C21.5 19.3265 20.8284 18.6549 20 18.6549C19.1716 18.6549 18.5 19.3265 18.5 20.1549C18.5 20.9834 19.1716 21.6549 20 21.6549Z" fill="#262626"/>
<path d="M14.5 21.6549C15.3284 21.6549 16 20.9834 16 20.1549C16 19.3265 15.3284 18.6549 14.5 18.6549C13.6716 18.6549 13 19.3265 13 20.1549C13 20.9834 13.6716 21.6549 14.5 21.6549Z" fill="#262626"/>
<path d="M25.5 21.6549C26.3284 21.6549 27 20.9834 27 20.1549C27 19.3265 26.3284 18.6549 25.5 18.6549C24.6716 18.6549 24 19.3265 24 20.1549C24 20.9834 24.6716 21.6549 25.5 21.6549Z" fill="#262626"/>
</svg>
